<!-- Generator: Adobe Illustrator 18.1.1, SVG Export Plug-In  -->
<svg version="1.1"
	 xmlns="http://www.w3.org/2000/svg" xmlns:xlink="http://www.w3.org/1999/xlink" xmlns:a="http://ns.adobe.com/AdobeSVGViewerExtensions/3.0/"
	 x="0px" y="0px" width="301.74px" height="89.567px" viewBox="0 0 301.74 89.567" enable-background="new 0 0 301.74 89.567"
	 xml:space="preserve">
<defs>
</defs>
<g>
	<path fill="#FFFFFF" d="M61.396,16.188c-0.229-0.125-0.464-0.302-0.705-0.532c-0.24-0.23-0.349-0.496-0.329-0.799
		c0.021-0.302,0.246-0.631,0.673-0.986c0.428-0.355,1.217-0.71,2.364-1.065c2.485-0.772,6.295-1.278,11.431-1.519
		c5.136-0.24,11.608-0.298,19.417-0.172c0.333-0.313,0.746-0.678,1.237-1.096c0.491-0.417,1.007-0.84,1.55-1.268
		c0.543-0.428,1.08-0.846,1.613-1.253c0.532-0.407,1.013-0.767,1.441-1.081c0.428-0.313,0.772-0.564,1.033-0.751
		c0.261-0.188,0.402-0.271,0.423-0.251c-0.272,0.376-0.601,0.778-0.987,1.206c-0.386,0.428-0.929,1.008-1.628,1.738
		c-0.7,0.731-1.613,1.65-2.74,2.756c0.877,0.021,1.936,0.042,3.178,0.063c1.242,0.021,2.542,0.037,3.899,0.047
		c1.357,0.011,2.704,0.026,4.04,0.047c1.336,0.021,2.531,0.052,3.586,0.094c1.054,0.042,1.905,0.089,2.553,0.141
		c0.647,0.052,0.971,0.12,0.971,0.204c0,0.042-0.261,0.089-0.783,0.141c-0.522,0.052-1.206,0.099-2.051,0.141
		c-0.846,0.042-1.816,0.089-2.913,0.141c-1.096,0.052-2.229,0.099-3.398,0.141c-1.169,0.042-2.328,0.078-3.476,0.109
		c-1.148,0.031-2.197,0.058-3.147,0.079c-0.95,0.021-1.764,0.037-2.443,0.047c-0.679,0.011-1.123,0.005-1.331-0.016
		c-3.362,3.57-6.196,6.666-8.503,9.286c-2.307,2.62-4.202,4.86-5.684,6.717c-1.483,1.859-2.609,3.382-3.382,4.572
		c-0.772,1.19-1.315,2.14-1.629,2.85c-0.313,0.71-0.454,1.221-0.423,1.535c0.031,0.313,0.12,0.532,0.266,0.658
		c0.23,0.188,0.83,0.246,1.801,0.172c0.971-0.073,2.281-0.37,3.93-0.892c1.649-0.522,3.606-1.315,5.872-2.38
		c2.265-1.065,4.796-2.495,7.594-4.29c0.146-0.104,0.261-0.099,0.344,0.016c0.083,0.115,0.052,0.214-0.094,0.297
		c-2.944,1.879-5.58,3.434-7.908,4.666c-2.328,1.232-4.353,2.177-6.075,2.834c-1.722,0.658-3.132,1.033-4.228,1.127
		c-1.096,0.094-1.874-0.047-2.333-0.423c-0.605-0.48-0.793-1.268-0.564-2.364c0.23-1.096,0.757-2.375,1.582-3.836
		c0.825-1.461,1.9-3.069,3.226-4.823c1.326-1.754,2.766-3.539,4.322-5.355c1.555-1.816,3.179-3.612,4.87-5.386
		c1.691-1.774,3.33-3.424,4.917-4.948c-3.8,0-7.046,0.005-9.74,0.016c-2.693,0.011-4.984,0.026-6.874,0.047
		c-1.889,0.021-3.461,0.052-4.713,0.094c-1.253,0.042-2.333,0.089-3.241,0.141c-0.908,0.052-1.712,0.125-2.411,0.219
		c-0.699,0.094-1.445,0.193-2.239,0.297c-0.292,0.042-0.673,0.141-1.143,0.297c-0.47,0.157-0.866,0.35-1.19,0.58
		c-0.324,0.23-0.501,0.491-0.532,0.783c-0.031,0.293,0.246,0.606,0.83,0.94c0.125,0.062,0.157,0.13,0.094,0.204
		C61.553,16.214,61.48,16.23,61.396,16.188z"/>
	<path fill="#FFFFFF" d="M102.358,30.312c0.021,0.167,0.219,0.167,0.595,0c0.376-0.167,0.861-0.454,1.456-0.861
		c0.595-0.407,1.268-0.897,2.02-1.472c0.752-0.574,1.524-1.174,2.317-1.801c0.793-0.626,1.566-1.253,2.317-1.879
		c0.752-0.626,1.43-1.19,2.036-1.691c0.188-0.188,0.355-0.24,0.501-0.157c0.041,0.042,0.079,0.115,0.11,0.219
		c0.031,0.105-0.016,0.209-0.141,0.313c-0.46,0.397-1.029,0.898-1.707,1.503c-0.679,0.606-1.409,1.253-2.192,1.942
		c-0.783,0.689-1.592,1.373-2.427,2.051c-0.835,0.679-1.639,1.279-2.411,1.801c-0.773,0.522-1.493,0.929-2.161,1.221
		c-0.669,0.293-1.221,0.397-1.66,0.313c-0.606-0.125-0.898-0.449-0.877-0.971c0.02-0.521,0.229-1.143,0.626-1.863
		c0.396-0.72,0.918-1.482,1.566-2.286c0.647-0.803,1.278-1.55,1.895-2.239c0.616-0.689,1.153-1.268,1.613-1.738
		c0.459-0.47,0.709-0.725,0.752-0.767c-0.814,0.438-1.743,0.982-2.787,1.629c-1.044,0.647-2.13,1.331-3.257,2.051
		c-1.127,0.72-2.255,1.446-3.382,2.177c-1.127,0.731-2.166,1.394-3.116,1.988c-0.95,0.595-1.774,1.091-2.474,1.488
		c-0.699,0.397-1.185,0.616-1.456,0.658c-0.271,0.042-0.454,0.011-0.548-0.094c-0.094-0.104-0.162-0.24-0.204-0.407
		c-0.042-0.188,0.24-0.699,0.846-1.535c0.606-0.835,1.42-1.874,2.443-3.116c1.023-1.242,2.213-2.62,3.57-4.134
		c1.357-1.514,2.776-3.043,4.259-4.588c1.482-1.545,2.975-3.043,4.478-4.494c1.503-1.451,2.912-2.73,4.228-3.837
		c-0.794,0.564-1.467,1.054-2.02,1.472c-0.553,0.418-1.039,0.794-1.456,1.128c-1.148,0.982-2.37,2.057-3.664,3.226
		c-1.295,1.17-2.548,2.302-3.758,3.398c-1.211,1.096-2.317,2.098-3.319,3.006c-1.002,0.908-1.785,1.592-2.349,2.051
		c-0.188,0.188-0.355,0.24-0.501,0.157c-0.042-0.041-0.079-0.115-0.11-0.219c-0.031-0.104,0.016-0.208,0.141-0.313
		c0.334-0.271,0.841-0.731,1.519-1.378c0.678-0.647,1.472-1.404,2.38-2.271c0.908-0.866,1.889-1.795,2.944-2.787
		c1.054-0.992,2.119-1.983,3.194-2.975c1.075-0.991,2.129-1.936,3.163-2.834c1.033-0.897,1.983-1.68,2.85-2.349
		c0.866-0.668,1.613-1.179,2.239-1.535c0.626-0.355,1.065-0.48,1.315-0.376c0.251,0.105,0.224,0.434-0.078,0.986
		c-0.303,0.553-0.814,1.263-1.535,2.13c-0.72,0.866-1.608,1.863-2.662,2.991c-1.054,1.127-2.192,2.317-3.414,3.57
		c-1.221,1.253-2.495,2.542-3.821,3.868c-1.326,1.326-2.615,2.626-3.868,3.899c-1.253,1.274-2.432,2.49-3.539,3.649
		c-1.106,1.159-2.067,2.197-2.881,3.116c0.418-0.104,1.023-0.423,1.817-0.955c0.794-0.532,1.696-1.174,2.709-1.926
		c1.012-0.752,2.087-1.571,3.226-2.458c1.138-0.887,2.255-1.738,3.351-2.552c1.096-0.814,2.134-1.545,3.116-2.192
		c0.981-0.647,1.806-1.117,2.474-1.409c0.501-0.208,0.918-0.292,1.253-0.251c0.334,0.042,0.574,0.178,0.72,0.407
		c0.146,0.23,0.204,0.517,0.172,0.861c-0.031,0.344-0.152,0.705-0.36,1.08c-0.439,0.814-1.008,1.66-1.707,2.537
		c-0.7,0.877-1.378,1.707-2.036,2.49c-0.658,0.783-1.221,1.472-1.691,2.067C102.531,29.639,102.316,30.062,102.358,30.312z"/>
	<path fill="#FFFFFF" d="M127.381,22.608c0.188-0.188,0.354-0.24,0.501-0.157c0.042,0.042,0.079,0.115,0.11,0.219
		c0.031,0.105-0.016,0.209-0.141,0.313c-2.339,2.004-4.484,3.706-6.435,5.105c-1.952,1.399-3.675,2.422-5.167,3.069
		c-1.493,0.647-2.736,0.882-3.727,0.705c-0.991-0.177-1.707-0.83-2.145-1.957c-0.292-0.752-0.371-1.524-0.235-2.318
		c0.136-0.793,0.418-1.571,0.846-2.333c0.428-0.762,0.971-1.488,1.628-2.177c0.658-0.689,1.367-1.315,2.13-1.879
		c0.762-0.564,1.545-1.049,2.349-1.456c0.803-0.407,1.566-0.699,2.286-0.877c0.72-0.177,1.362-0.224,1.926-0.141
		c0.564,0.084,0.991,0.334,1.284,0.752c0.209,0.313,0.271,0.705,0.188,1.174c-0.084,0.47-0.298,0.982-0.642,1.535
		c-0.345,0.553-0.814,1.117-1.409,1.691c-0.595,0.574-1.311,1.117-2.146,1.628c-0.835,0.512-1.78,0.961-2.834,1.347
		c-1.055,0.386-2.208,0.663-3.461,0.83c-0.104,0.397-0.125,0.741-0.063,1.033c0.105,0.794,0.402,1.31,0.893,1.55
		c0.491,0.24,1.101,0.293,1.832,0.157c0.73-0.136,1.545-0.423,2.443-0.861c0.897-0.439,1.806-0.95,2.724-1.535
		C122.286,26.669,124.708,24.863,127.381,22.608z M121.743,19.915c-0.062-0.251-0.297-0.344-0.705-0.282
		c-0.407,0.063-0.903,0.24-1.488,0.532c-0.585,0.293-1.232,0.684-1.942,1.174c-0.71,0.491-1.394,1.039-2.051,1.644
		c-0.658,0.606-1.258,1.242-1.801,1.91c-0.543,0.668-0.95,1.336-1.221,2.004c1.461-0.229,2.782-0.652,3.961-1.268
		c1.18-0.616,2.171-1.284,2.975-2.004c0.804-0.72,1.404-1.425,1.801-2.114C121.67,20.823,121.827,20.291,121.743,19.915z"/>
	<path fill="#FFFFFF" d="M147.561,30.375c0.459-0.02,1.054-0.297,1.785-0.83c0.73-0.532,1.529-1.185,2.396-1.958
		c0.866-0.772,1.77-1.607,2.709-2.505c0.939-0.897,1.858-1.722,2.756-2.474c0.188-0.188,0.354-0.24,0.501-0.157
		c0.041,0.042,0.079,0.115,0.11,0.219c0.031,0.105-0.016,0.209-0.141,0.313c-0.459,0.397-1.002,0.898-1.629,1.503
		c-0.626,0.606-1.289,1.253-1.988,1.942c-0.7,0.689-1.415,1.373-2.146,2.051c-0.731,0.679-1.446,1.284-2.145,1.816
		c-0.7,0.532-1.358,0.95-1.973,1.253c-0.616,0.303-1.143,0.413-1.582,0.329c-0.48-0.083-0.798-0.282-0.955-0.595
		c-0.157-0.313-0.214-0.689-0.172-1.128c0.042-0.438,0.167-0.924,0.376-1.456c0.209-0.532,0.438-1.049,0.689-1.55
		c0.251-0.501,0.501-0.965,0.751-1.394c0.251-0.428,0.449-0.767,0.595-1.018c-0.23,0.209-0.543,0.501-0.94,0.877
		c-0.397,0.376-0.846,0.794-1.347,1.253c-0.501,0.46-1.028,0.945-1.581,1.456c-0.553,0.512-1.102,0.986-1.644,1.425
		c-0.543,0.439-1.055,0.83-1.535,1.174c-0.48,0.344-0.898,0.58-1.253,0.705c-0.647,0.25-1.169,0.308-1.566,0.172
		c-0.396-0.136-0.699-0.349-0.908-0.642c-0.209-0.292-0.35-0.626-0.423-1.002c-0.073-0.376-0.099-0.689-0.079-0.939
		c0.042-0.689,0.329-1.493,0.862-2.411c0.532-0.918,1.19-1.832,1.973-2.74c0.783-0.908,1.633-1.743,2.552-2.505
		c0.919-0.762,1.795-1.331,2.631-1.707c0.772-0.355,1.493-0.59,2.161-0.705c0.668-0.115,1.242-0.11,1.722,0.016
		c0.48,0.125,0.846,0.386,1.096,0.783c0.251,0.397,0.344,0.919,0.282,1.566c0.083,0.063,0.167,0.136,0.251,0.219
		c0.062,0.084,0.12,0.204,0.172,0.36c0.052,0.157,0.079,0.36,0.079,0.611c0,0.418-0.11,0.903-0.329,1.456
		c-0.219,0.553-0.48,1.117-0.783,1.691c-0.303,0.574-0.616,1.138-0.94,1.691c-0.324,0.553-0.579,1.044-0.768,1.472
		c-0.188,0.428-0.266,0.767-0.235,1.018C146.982,30.281,147.185,30.396,147.561,30.375z M137.539,29.811
		c0.125,0.188,0.475,0.115,1.049-0.219c0.575-0.334,1.263-0.803,2.067-1.409c0.804-0.605,1.665-1.294,2.584-2.067
		c0.919-0.772,1.79-1.492,2.615-2.161c0.825-0.668,1.539-1.232,2.145-1.691c0.606-0.459,0.991-0.689,1.159-0.689
		c-0.084-0.71-0.324-1.153-0.721-1.331c-0.396-0.177-0.898-0.172-1.503,0.016c-0.606,0.188-1.274,0.527-2.005,1.018
		c-0.731,0.491-1.467,1.055-2.208,1.691c-0.741,0.637-1.456,1.315-2.145,2.036c-0.689,0.72-1.278,1.404-1.77,2.051
		c-0.491,0.647-0.861,1.216-1.112,1.707C137.445,29.253,137.394,29.602,137.539,29.811z"/>
	<path fill="#FFFFFF" d="M159.242,30.312c-0.042,0.167,0.151,0.167,0.579,0c0.428-0.167,0.986-0.454,1.675-0.861
		c0.689-0.407,1.476-0.897,2.364-1.472c0.887-0.574,1.785-1.174,2.693-1.801c0.908-0.626,1.78-1.253,2.615-1.879
		c0.835-0.626,1.555-1.19,2.161-1.691c0.188-0.188,0.354-0.24,0.501-0.157c0.042,0.042,0.079,0.115,0.11,0.219
		c0.031,0.105-0.016,0.209-0.141,0.313c-0.397,0.334-0.982,0.83-1.754,1.487c-0.772,0.658-1.639,1.362-2.599,2.114
		c-0.961,0.752-1.968,1.498-3.022,2.239c-1.055,0.741-2.057,1.373-3.007,1.895c-0.95,0.522-1.801,0.872-2.552,1.049
		c-0.752,0.177-1.316,0.078-1.691-0.298c-0.334-0.376-0.412-0.85-0.235-1.425c0.178-0.574,0.501-1.19,0.971-1.848
		c0.47-0.658,1.033-1.336,1.691-2.036c0.658-0.699,1.299-1.362,1.926-1.989c0.627-0.626,1.195-1.19,1.707-1.691
		s0.85-0.897,1.018-1.19c-0.856,0.105-1.759,0.177-2.709,0.219c-0.95,0.042-1.837,0.021-2.662-0.063
		c-0.825-0.083-1.529-0.224-2.114-0.423c-0.585-0.198-0.919-0.485-1.003-0.861c-0.083-0.313-0.052-0.584,0.094-0.814
		c0.146-0.23,0.356-0.417,0.627-0.564c0.272-0.146,0.569-0.266,0.892-0.36c0.323-0.094,0.631-0.182,0.924-0.266
		c0.292-0.083,0.527-0.167,0.705-0.251c0.177-0.083,0.255-0.177,0.235-0.282c-0.042-0.208-0.256-0.344-0.642-0.407
		c-0.387-0.063-0.799-0.052-1.237,0.031c-0.188,0.042-0.297-0.021-0.329-0.188c-0.032-0.167,0.068-0.282,0.297-0.344
		c0.083-0.021,0.261-0.047,0.532-0.078c0.271-0.031,0.564-0.031,0.877,0c0.313,0.031,0.605,0.109,0.877,0.235
		c0.271,0.125,0.438,0.324,0.501,0.595c0.062,0.23,0.02,0.434-0.125,0.61c-0.146,0.178-0.334,0.344-0.564,0.501
		c-0.23,0.157-0.486,0.293-0.768,0.407c-0.282,0.115-0.527,0.214-0.736,0.297c-0.209,0.084-0.366,0.152-0.47,0.204
		c-0.104,0.052-0.094,0.089,0.031,0.109c1.022,0.168,2.009,0.266,2.959,0.298c0.95,0.031,1.79,0.068,2.521,0.109
		c0.731,0.042,1.326,0.125,1.785,0.251s0.709,0.355,0.752,0.689c0.02,0.188-0.11,0.496-0.392,0.924
		c-0.282,0.428-0.642,0.935-1.081,1.519c-0.438,0.585-0.924,1.206-1.456,1.863c-0.532,0.658-1.034,1.305-1.503,1.942
		c-0.47,0.637-0.877,1.232-1.221,1.785C159.508,29.534,159.304,29.978,159.242,30.312z"/>
	<path fill="#FFFFFF" d="M153.949,16.188c-0.23-0.125-0.465-0.302-0.705-0.532c-0.24-0.23-0.35-0.496-0.329-0.799
		c0.021-0.302,0.246-0.631,0.673-0.986c0.428-0.355,1.217-0.71,2.364-1.065c2.485-0.772,6.295-1.278,11.431-1.519
		c5.136-0.24,11.608-0.298,19.417-0.172c0.334-0.313,0.747-0.678,1.237-1.096c0.491-0.417,1.007-0.84,1.55-1.268
		c0.543-0.428,1.081-0.846,1.613-1.253c0.532-0.407,1.012-0.767,1.44-1.081c0.428-0.313,0.772-0.564,1.034-0.751
		c0.261-0.188,0.402-0.271,0.423-0.251c-0.272,0.376-0.6,0.778-0.986,1.206c-0.387,0.428-0.929,1.008-1.629,1.738
		c-0.7,0.731-1.613,1.65-2.74,2.756c0.877,0.021,1.936,0.042,3.179,0.063c1.242,0.021,2.542,0.037,3.899,0.047
		c1.357,0.011,2.704,0.026,4.04,0.047c1.336,0.021,2.532,0.052,3.586,0.094c1.054,0.042,1.905,0.089,2.553,0.141
		c0.646,0.052,0.971,0.12,0.971,0.204c0,0.042-0.261,0.089-0.783,0.141c-0.522,0.052-1.206,0.099-2.051,0.141
		c-0.846,0.042-1.816,0.089-2.913,0.141c-1.096,0.052-2.229,0.099-3.398,0.141c-1.17,0.042-2.328,0.078-3.476,0.109
		c-1.149,0.031-2.198,0.058-3.148,0.079c-0.95,0.021-1.765,0.037-2.443,0.047c-0.678,0.011-1.123,0.005-1.331-0.016
		c-3.362,3.57-6.196,6.666-8.502,9.286c-2.307,2.62-4.202,4.86-5.684,6.717c-1.483,1.859-2.61,3.382-3.383,4.572
		c-0.772,1.19-1.315,2.14-1.628,2.85c-0.314,0.71-0.454,1.221-0.423,1.535c0.031,0.313,0.12,0.532,0.266,0.658
		c0.23,0.188,0.83,0.246,1.801,0.172c0.971-0.073,2.281-0.37,3.931-0.892c1.649-0.522,3.606-1.315,5.872-2.38
		c2.265-1.065,4.797-2.495,7.595-4.29c0.146-0.104,0.261-0.099,0.344,0.016c0.083,0.115,0.052,0.214-0.094,0.297
		c-2.944,1.879-5.58,3.434-7.907,4.666c-2.328,1.232-4.353,2.177-6.076,2.834c-1.723,0.658-3.132,1.033-4.228,1.127
		c-1.096,0.094-1.873-0.047-2.333-0.423c-0.606-0.48-0.793-1.268-0.564-2.364c0.23-1.096,0.757-2.375,1.582-3.836
		c0.825-1.461,1.9-3.069,3.226-4.823c1.326-1.754,2.766-3.539,4.322-5.355c1.555-1.816,3.179-3.612,4.87-5.386
		c1.691-1.774,3.33-3.424,4.917-4.948c-3.801,0-7.046,0.005-9.74,0.016c-2.694,0.011-4.984,0.026-6.874,0.047
		c-1.889,0.021-3.461,0.052-4.713,0.094c-1.253,0.042-2.333,0.089-3.241,0.141c-0.908,0.052-1.712,0.125-2.412,0.219
		c-0.699,0.094-1.445,0.193-2.239,0.297c-0.292,0.042-0.673,0.141-1.143,0.297c-0.47,0.157-0.866,0.35-1.19,0.58
		c-0.323,0.23-0.501,0.491-0.532,0.783c-0.032,0.293,0.245,0.606,0.83,0.94c0.125,0.062,0.157,0.13,0.094,0.204
		C154.105,16.214,154.032,16.23,153.949,16.188z"/>
	<path fill="#FFFFFF" d="M214.79,22.608c0.188-0.188,0.355-0.24,0.501-0.157c0.041,0.042,0.073,0.11,0.094,0.204
		c0.02,0.094-0.021,0.204-0.125,0.329c-1.107,1.127-2.146,2.067-3.116,2.819c-0.971,0.751-1.9,1.383-2.787,1.895
		c-0.887,0.512-1.749,0.935-2.583,1.268c-0.835,0.334-1.671,0.658-2.505,0.971c-0.397,0.438-0.883,0.814-1.457,1.127
		c-0.574,0.313-1.164,0.543-1.77,0.689c-0.606,0.146-1.195,0.204-1.769,0.172c-0.574-0.031-1.081-0.183-1.519-0.454
		c-0.438-0.271-0.768-0.673-0.986-1.206c-0.219-0.532-0.266-1.216-0.141-2.051c0.062-0.417,0.209-0.903,0.438-1.456
		c0.23-0.553,0.532-1.138,0.908-1.754c0.376-0.616,0.82-1.232,1.331-1.848c0.512-0.616,1.075-1.19,1.691-1.722
		c0.616-0.532,1.284-1.002,2.005-1.409c0.72-0.407,1.476-0.705,2.27-0.892c0.271-0.083,0.652-0.141,1.143-0.172
		c0.491-0.031,0.944,0.089,1.362,0.36c0.626,0.293,1.038,0.7,1.237,1.221c0.198,0.522,0.24,1.096,0.125,1.722
		c-0.115,0.626-0.335,1.274-0.658,1.942c-0.324,0.668-0.679,1.299-1.065,1.895c-0.386,0.595-0.767,1.117-1.143,1.566
		c-0.376,0.449-0.669,0.768-0.877,0.955c1.211-0.459,2.306-0.971,3.288-1.535c0.982-0.564,1.864-1.122,2.647-1.675
		c0.783-0.553,1.461-1.075,2.035-1.566C213.94,23.355,214.415,22.942,214.79,22.608z M200.823,30.218
		c-0.585-0.02-0.986-0.24-1.206-0.658c-0.219-0.417-0.302-0.944-0.251-1.582c0.053-0.637,0.235-1.347,0.548-2.13
		c0.314-0.783,0.721-1.555,1.221-2.317c0.501-0.762,1.081-1.472,1.738-2.13c0.657-0.658,1.362-1.185,2.114-1.581
		c-0.982,0.48-1.869,1.112-2.662,1.895c-0.794,0.783-1.478,1.608-2.051,2.474c-0.574,0.867-1.028,1.702-1.362,2.505
		c-0.333,0.804-0.532,1.467-0.595,1.989c-0.063,0.564-0.01,0.971,0.157,1.221c0.167,0.25,0.392,0.413,0.673,0.485
		c0.282,0.073,0.579,0.078,0.892,0.016S200.614,30.281,200.823,30.218z M207.525,20.165c-0.062-0.062-0.23-0.125-0.501-0.188
		c-0.272-0.063-0.632,0.005-1.081,0.204c-0.449,0.198-0.992,0.606-1.629,1.221c-0.637,0.616-1.352,1.561-2.145,2.834
		c-0.397,0.647-0.7,1.258-0.908,1.832c-0.209,0.575-0.329,1.081-0.36,1.519c-0.031,0.439,0.026,0.788,0.173,1.049
		c0.146,0.261,0.365,0.392,0.657,0.392s0.673-0.183,1.143-0.548c0.47-0.365,0.96-0.835,1.472-1.409
		c0.512-0.574,1.018-1.211,1.519-1.91c0.501-0.699,0.913-1.378,1.237-2.036c0.323-0.658,0.537-1.253,0.642-1.785
		C207.848,20.807,207.776,20.416,207.525,20.165z"/>
	<path fill="#FFFFFF" d="M228.57,26.711c-1.024,0.23-2.125,0.376-3.304,0.438c-1.18,0.063-2.469,0.011-3.868-0.157l-0.125,0.125
		c0.167,1.211,0.026,2.5-0.423,3.867c-0.449,1.368-1.112,2.756-1.988,4.165c-0.877,1.409-1.921,2.824-3.132,4.243
		c-1.211,1.42-2.474,2.792-3.789,4.118c-1.316,1.326-2.641,2.584-3.977,3.774c-1.335,1.19-2.573,2.255-3.711,3.194
		c-1.138,0.94-2.13,1.738-2.975,2.396c-0.846,0.658-1.445,1.122-1.801,1.394c-0.814,0.626-1.466,1.101-1.957,1.425
		c-0.491,0.324-0.877,0.543-1.159,0.658c-0.282,0.114-0.486,0.151-0.611,0.109c-0.125-0.042-0.219-0.094-0.282-0.157
		c-0.208-0.23-0.182-0.606,0.079-1.127c0.261-0.522,0.809-1.284,1.644-2.286c2.986-3.633,5.721-6.911,8.205-9.834
		c2.485-2.923,4.666-5.475,6.545-7.657c1.879-2.182,3.434-3.972,4.666-5.371c1.231-1.399,2.098-2.401,2.599-3.007
		c-0.021-0.063-0.042-0.125-0.062-0.188c-0.021-0.063-0.042-0.125-0.063-0.188c-1.274-0.208-2.385-0.396-3.335-0.564
		c-0.95-0.167-1.753-0.329-2.411-0.485c-0.658-0.157-1.19-0.313-1.597-0.47c-0.407-0.157-0.705-0.329-0.892-0.517
		c-0.083-0.083-0.188-0.209-0.313-0.376c-0.125-0.167-0.209-0.36-0.251-0.579c-0.041-0.219-0.005-0.449,0.11-0.689
		c0.115-0.24,0.36-0.485,0.736-0.736c0.376-0.25,0.971-0.407,1.785-0.47c0.814-0.062,1.686,0,2.615,0.188
		c0.928,0.188,1.848,0.532,2.756,1.033c0.908,0.501,1.654,1.201,2.239,2.098c0.125,0.042,0.229,0.063,0.313,0.063
		c3.653-3.925,6.895-7.391,9.724-10.397c2.829-3.006,5.193-5.522,7.093-7.547c1.9-2.025,3.314-3.544,4.244-4.557
		c0.928-1.013,1.331-1.487,1.205-1.425c-0.355,0.167-0.72,0.365-1.096,0.595c-0.375,0.23-0.72,0.46-1.033,0.689
		c-0.313,0.23-0.585,0.438-0.814,0.626c-0.23,0.188-0.387,0.313-0.47,0.376c-0.23,0.167-0.397,0.177-0.501,0.031
		c-0.105-0.146-0.073-0.303,0.094-0.47c0.146-0.146,0.386-0.36,0.72-0.642c0.333-0.282,0.705-0.574,1.112-0.877
		c0.407-0.302,0.825-0.589,1.253-0.861c0.428-0.271,0.799-0.47,1.112-0.595c0.188-0.083,0.396-0.109,0.627-0.078
		c0.229,0.031,0.313,0.287,0.25,0.767c-0.021,0.209-0.339,0.715-0.955,1.519c-0.616,0.804-1.42,1.791-2.411,2.96
		c-0.992,1.169-2.119,2.464-3.382,3.883c-1.263,1.42-2.558,2.861-3.883,4.322c-1.326,1.462-2.626,2.892-3.899,4.29
		c-1.274,1.399-2.417,2.652-3.429,3.758c-1.013,1.107-1.843,2.02-2.49,2.74c-0.648,0.72-1.013,1.133-1.096,1.237
		c1.19,0.23,2.38,0.36,3.57,0.392c1.19,0.031,2.234-0.12,3.131-0.454c0.982-0.355,1.774-0.793,2.381-1.315
		c0.605-0.521,1.179-1.023,1.722-1.503c0.188-0.188,0.355-0.24,0.501-0.157c0.041,0.042,0.078,0.115,0.109,0.219
		c0.032,0.105-0.016,0.209-0.141,0.313c-0.501,0.564-1.044,1.096-1.628,1.597c-0.501,0.418-1.091,0.835-1.77,1.253
		C230.005,26.252,229.301,26.544,228.57,26.711z M197.723,53.299c-0.146,0.188-0.298,0.396-0.454,0.626
		c-0.157,0.229-0.302,0.449-0.438,0.658c-0.136,0.208-0.255,0.392-0.36,0.548c-0.104,0.157-0.167,0.266-0.188,0.329
		c0.125-0.063,0.303-0.172,0.532-0.329c0.23-0.157,0.47-0.329,0.72-0.517c0.251-0.188,0.496-0.381,0.736-0.58
		c0.24-0.198,0.444-0.371,0.611-0.517c0.083-0.063,0.418-0.34,1.002-0.83c0.585-0.491,1.337-1.138,2.255-1.942
		c0.919-0.804,1.952-1.743,3.101-2.819c1.148-1.075,2.328-2.224,3.539-3.445c1.211-1.221,2.401-2.495,3.57-3.821
		c1.169-1.326,2.239-2.646,3.21-3.962c0.971-1.315,1.785-2.61,2.443-3.883c0.657-1.273,1.08-2.463,1.268-3.57
		c-2.505,2.568-4.723,4.881-6.655,6.937c-1.931,2.057-3.638,3.894-5.12,5.512c-1.482,1.618-2.756,3.042-3.821,4.275
		c-1.064,1.232-1.978,2.312-2.74,3.241c-0.762,0.929-1.398,1.722-1.91,2.38C198.511,52.25,198.078,52.818,197.723,53.299z
		 M213.977,23.798c0.459,0.105,0.83,0.188,1.112,0.25c0.282,0.063,0.516,0.11,0.705,0.141c0.188,0.031,0.333,0.058,0.438,0.079
		c0.104,0.021,0.208,0.042,0.313,0.062c-0.272-0.083-0.553-0.167-0.846-0.25c-0.251-0.063-0.528-0.125-0.83-0.188
		S214.269,23.798,213.977,23.798z"/>
</g>
<path fill="#FFFFFF" d="M0,86.611h5.401v-35.25H0v-2.274h17.625c2.501,0,5.003,0.284,6.879,1.194
	c3.695,1.763,6.083,5.515,6.083,10.404c0,5.344-2.843,9.381-7.164,10.916c-1.876,0.682-3.695,0.796-5.799,0.796H7.846v14.214h5.401
	v2.274H0V86.611z M17.511,70.123c1.99,0,3.695-0.228,5.174-0.739c3.297-1.251,5.344-4.378,5.344-8.699
	c0-4.037-1.763-6.879-4.719-8.301c-1.479-0.682-3.582-1.023-5.799-1.023H7.846v18.762H17.511z"/>
<path fill="#FFFFFF" d="M50.525,71.544h1.876v-1.251c0-6.083-3.127-8.244-7.562-8.244c-5.003,0-8.357,2.786-8.357,2.786
	l-1.365-1.933c0,0,3.582-3.127,9.779-3.127c6.538,0,9.893,3.525,9.893,10.461v15.18c0,0.853,0.455,1.251,1.25,1.251h3.412v2.217
	h-3.752c-2.331,0-3.298-0.966-3.298-3.127v-0.625c0-1.535,0.228-2.559,0.228-2.559h-0.114c0,0-2.501,6.993-10.063,6.993
	c-4.548,0-9.552-2.558-9.552-8.414C32.9,71.715,45.635,71.544,50.525,71.544z M42.452,87.35c6.538,0,9.949-6.424,9.949-12.053
	v-1.535h-1.819c-2.104,0-15.18-0.512-15.18,7.106C35.402,84.166,37.846,87.35,42.452,87.35z"/>
<path fill="#FFFFFF" d="M61.718,62.675h-5.401v-2.217h5.401v-7.903h2.388v7.903h7.448v2.217h-7.448v15.749
	c0,7.505,4.491,8.472,6.766,8.472c0.796,0,1.308-0.114,1.308-0.114v2.217c0,0-0.568,0.114-1.421,0.114
	c-2.957,0-9.04-1.081-9.04-10.518V62.675z"/>
<path fill="#FFFFFF" d="M79.686,62.675h-5.4v-2.217h5.4v-7.903h2.389v7.903h7.447v2.217h-7.447v15.749
	c0,7.505,4.491,8.472,6.766,8.472c0.796,0,1.308-0.114,1.308-0.114v2.217c0,0-0.568,0.114-1.422,0.114
	c-2.956,0-9.04-1.081-9.04-10.518V62.675z"/>
<path fill="#FFFFFF" d="M93.844,86.667h5.117V62.675H93.56v-2.217h7.789v26.21h5.116v2.217H93.844V86.667z M98.62,49.087h3.07v4.15
	h-3.07V49.087z"/>
<path fill="#FFFFFF" d="M119.529,86.611h5.4v-35.25h-5.4v-2.274h17.738c2.672,0,4.946,0.455,6.766,1.478
	c2.444,1.365,4.321,4.548,4.321,8.528c0,4.207-2.104,7.164-5.174,8.642v0.114c3.923,1.08,6.766,4.946,6.766,9.95
	c0,4.662-2.502,8.642-6.197,10.177c-1.763,0.739-3.81,0.91-5.97,0.91h-18.25V86.611z M138.234,66.825
	c4.435,0,7.562-3.07,7.562-7.789c0-2.899-1.194-5.23-3.185-6.481c-1.364-0.853-3.184-1.194-5.344-1.194h-9.893v15.464H138.234z
	 M137.779,86.611c1.421,0,3.298-0.114,4.775-0.739c2.957-1.194,4.833-4.15,4.833-7.959c0-5.401-3.695-8.812-8.812-8.812h-11.2
	v17.511H137.779z"/>
<path fill="#FFFFFF" d="M166.783,59.775c7.731,0,11.598,6.083,11.598,12.963c0,0.625-0.113,1.535-0.113,1.535h-22.799
	c0,8.244,5.571,12.962,12.167,12.962c5.458,0,8.812-3.582,8.812-3.582l1.308,1.99c0,0-3.98,3.923-10.12,3.923
	c-8.017,0-14.669-5.799-14.669-14.839C152.966,65.12,159.505,59.775,166.783,59.775z M175.88,72.056
	c-0.285-6.937-4.436-10.063-9.154-10.063c-5.23,0-10.062,3.411-11.086,10.063H175.88z"/>
<path fill="#FFFFFF" d="M197.784,71.544h1.876v-1.251c0-6.083-3.127-8.244-7.562-8.244c-5.003,0-8.357,2.786-8.357,2.786
	l-1.364-1.933c0,0,3.581-3.127,9.778-3.127c6.539,0,9.893,3.525,9.893,10.461v15.18c0,0.853,0.455,1.251,1.251,1.251h3.411v2.217
	h-3.752c-2.331,0-3.298-0.966-3.298-3.127v-0.625c0-1.535,0.228-2.559,0.228-2.559h-0.113c0,0-2.502,6.993-10.063,6.993
	c-4.549,0-9.552-2.558-9.552-8.414C180.159,71.715,192.894,71.544,197.784,71.544z M189.711,87.35c6.538,0,9.949-6.424,9.949-12.053
	v-1.535h-1.819c-2.104,0-15.18-0.512-15.18,7.106C182.661,84.166,185.105,87.35,189.711,87.35z"/>
<path fill="#FFFFFF" d="M204.857,60.457h10.916v2.217h-4.492l8.131,21.264c0.341,0.853,0.512,1.819,0.512,1.819h0.113
	c0,0,0.171-0.966,0.512-1.819l8.13-21.264h-4.491v-2.217h10.916v2.217h-3.866l-10.12,26.21h-2.273l-10.12-26.21h-3.866V60.457z"/>
<path fill="#FFFFFF" d="M247.328,59.775c7.731,0,11.598,6.083,11.598,12.963c0,0.625-0.113,1.535-0.113,1.535h-22.799
	c0,8.244,5.571,12.962,12.167,12.962c5.458,0,8.812-3.582,8.812-3.582l1.308,1.99c0,0-3.98,3.923-10.12,3.923
	c-8.017,0-14.669-5.799-14.669-14.839C233.512,65.12,240.051,59.775,247.328,59.775z M256.425,72.056
	c-0.285-6.937-4.436-10.063-9.154-10.063c-5.23,0-10.062,3.411-11.086,10.063H256.425z"/>
<path fill="#FFFFFF" d="M261.215,86.667h4.549V63.926c0-0.853-0.455-1.251-1.251-1.251h-4.15v-2.217h4.491
	c2.331,0,3.298,0.967,3.298,3.127v1.99c0,1.308-0.114,2.331-0.114,2.331h0.114c1.421-4.378,4.491-7.676,8.982-7.676
	c0.854,0,1.649,0.171,1.649,0.171v2.388c0,0-0.683-0.114-1.308-0.114c-6.652,0-9.324,8.13-9.324,13.929v10.063h4.548v2.217h-11.484
	V86.667z"/>
<path fill="#FFFFFF" d="M281.159,80.414h2.388v2.16c0,3.298,4.833,4.662,8.244,4.662c3.923,0,7.447-1.819,7.447-5.174
	c0-3.695-4.036-5.06-8.187-6.652c-4.321-1.648-8.756-3.525-8.756-8.301c0-4.833,4.662-7.334,9.211-7.334
	c3.695,0,9.097,1.649,9.097,5.401v3.127h-2.389v-2.331c0-2.388-3.297-3.866-6.595-3.866c-3.525,0-6.822,1.649-6.822,4.833
	c0,3.468,3.809,4.89,7.789,6.425c4.435,1.706,9.153,3.582,9.153,8.471c0,4.548-3.979,7.732-10.177,7.732
	c-5.288,0-10.404-2.445-10.404-6.708V80.414z"/>
</svg>